<?xml version="1.0" standalone="no"?>
<!DOCTYPE svg PUBLIC "-//W3C//DTD SVG 20010904//EN"
 "http://www.w3.org/TR/2001/REC-SVG-20010904/DTD/svg10.dtd">
<svg version="1.0" xmlns="http://www.w3.org/2000/svg"
 width="500.000000pt" height="500.000000pt" viewBox="0 0 500.000000 500.000000"
 preserveAspectRatio="xMidYMid meet">

<g transform="translate(0.000000,500.000000) scale(0.100000,-0.100000)"
fill="#000000" stroke="none">
<path d="M770 2941 c-84 -27 -151 -93 -174 -172 -23 -78 -23 -508 0 -576 23
-67 66 -117 126 -147 l52 -26 276 0 276 0 52 26 c60 30 103 80 126 147 23 68
23 498 0 576 -18 61 -69 123 -128 154 -39 21 -55 22 -311 24 -148 1 -281 -2
-295 -6z m80 -210 c0 -23 -5 -30 -22 -33 -21 -3 -23 -9 -28 -90 -4 -65 -10
-91 -24 -107 -18 -20 -18 -21 3 -47 17 -22 21 -41 21 -101 0 -69 2 -74 25 -85
16 -7 25 -19 25 -35 0 -20 -5 -23 -35 -23 -60 0 -85 45 -85 155 0 42 -5 56
-25 75 -14 13 -25 33 -25 46 0 12 11 29 25 38 22 15 25 23 25 81 0 104 29 155
87 155 30 0 33 -3 33 -29z m491 3 c21 -22 24 -37 27 -109 4 -78 6 -84 33 -104
37 -27 37 -44 -1 -78 -28 -24 -30 -31 -30 -95 0 -100 -24 -138 -86 -138 -18 0
-24 5 -24 23 0 12 9 28 19 34 15 10 20 27 22 91 3 61 9 85 23 101 19 21 19 21
0 42 -15 16 -20 40 -23 106 -3 74 -6 86 -22 90 -13 4 -19 14 -19 34 0 25 4 29
28 29 18 0 38 -10 53 -26z m-326 -212 l39 -108 32 91 c18 49 35 98 39 108 5
12 18 17 46 17 l39 0 0 -160 0 -160 -30 0 -30 0 -1 113 0 112 -41 -113 c-54
-149 -64 -149 -122 3 l-41 110 -3 -112 c-3 -113 -3 -113 -27 -113 l-25 0 0
160 0 160 43 0 43 0 39 -108z"/>
<path d="M1810 2700 c-12 -8 -15 -37 -13 -170 2 -207 3 -212 51 -208 l37 3 5
90 c3 51 8 81 12 70 4 -11 16 -53 28 -93 20 -69 23 -73 48 -70 24 3 30 12 54
83 l26 80 4 -80 3 -80 40 0 40 0 7 50 c10 80 9 295 -2 316 -12 22 -57 26 -83
7 -9 -8 -31 -64 -49 -130 -18 -65 -36 -118 -39 -118 -3 0 -20 54 -38 120 -23
83 -39 123 -51 130 -23 13 -60 13 -80 0z"/>
<path d="M2382 2698 c-13 -13 -16 -246 -4 -328 7 -45 7 -45 47 -45 l40 0 3
151 c1 82 -1 168 -6 190 -7 34 -12 39 -37 42 -17 2 -36 -3 -43 -10z"/>
<path d="M2690 2701 c-18 -5 -26 -15 -28 -35 -4 -34 10 -46 56 -46 l32 0 1
-122 c1 -156 5 -172 46 -176 48 -5 55 18 51 169 l-3 129 36 0 c42 0 62 19 57
52 -2 16 -12 25 -33 29 -40 9 -184 9 -215 0z"/>
<path d="M3608 2683 c-27 -11 -38 -21 -38 -37 0 -32 16 -50 38 -44 18 5 20 -1
26 -76 3 -44 6 -104 6 -133 0 -69 26 -95 74 -77 14 5 16 31 16 179 0 95 -3
180 -6 189 -8 21 -66 20 -116 -1z"/>
<path d="M3895 2685 c-65 -24 -95 -80 -95 -180 0 -59 31 -129 71 -158 68 -49
161 -26 207 52 35 60 39 166 7 220 -40 68 -114 94 -190 66z m105 -104 c15 -30
12 -113 -6 -139 -19 -27 -55 -28 -79 -2 -20 22 -24 105 -6 139 16 28 76 30 91
2z"/>
<path d="M3124 2536 c-11 -29 1 -60 26 -67 31 -9 155 -9 195 0 26 5 30 10 30
41 l0 35 -123 3 c-100 2 -123 0 -128 -12z"/>
</g>
</svg>
